<svg version="1.1" xmlns="http://www.w3.org/2000/svg" style="display: block;" viewBox="0 0 2048 2048" width="1024" height="1024">
<path transform="translate(0,0)" fill="rgb(243,245,239)" d="M 0 0 L 2048 0 L 2048 2048 L 0 2048 L 0 0 z"/>
<path transform="translate(0,0)" fill="rgb(74,103,69)" d="M 999.506 89.4483 A 939.764 939.764 0 0 1 1660.5 341.155 A 931.745 931.745 0 0 1 1956.21 993.412 A 930.309 930.309 0 0 1 1705.06 1660.77 A 925.007 925.007 0 0 1 1050.13 1954.96 C 983.991 1955.53 918.693 1951.55 853.455 1939.94 A 931.719 931.719 0 0 1 388.442 1706.75 A 933.91 933.91 0 0 1 90.9279 1052.75 C 81.7509 807.975 177.728 562.829 344.171 384.02 A 933.965 933.965 0 0 1 999.506 89.4483 z"/>
<path transform="translate(0,0)" fill="rgb(195,210,179)" d="M 991.666 107.431 C 992.135 107.385 992.604 107.323 993.074 107.292 C 1035.71 104.481 1080.52 107.849 1122.91 112.764 A 916.659 916.659 0 0 1 1628.55 335.542 A 1027.34 1027.34 0 0 1 1740.12 452.096 A 910.88 910.88 0 0 1 1937.13 969.105 A 905.576 905.576 0 0 1 1703.37 1635.77 A 909.873 909.873 0 0 1 1138.91 1931.24 C 1111.66 1934.8 1084.34 1936.48 1056.92 1937.94 A 918.436 918.436 0 0 1 409.872 1702.64 A 916.701 916.701 0 0 1 108.906 1069.13 A 925.759 925.759 0 0 1 269.159 505.007 C 287.451 478.319 306.897 451.188 328.553 427.118 C 361.937 390.013 395.499 354.851 433.541 322.422 A 924.945 924.945 0 0 1 837.69 125.597 C 888.545 115.205 939.901 110.13 991.666 107.431 z"/>
<path transform="translate(0,0)" fill="rgb(74,103,69)" d="M 989.552 176.561 C 1154.69 168.585 1326.25 215.397 1467.11 301.242 C 1509.84 327.283 1551.13 358.605 1588.52 391.773 C 1748.14 533.372 1856.73 747.724 1869.13 961.436 C 1880.88 1163.85 1828.58 1358.28 1708.18 1522.52 C 1690.51 1546.62 1670.59 1569.7 1650.72 1591.99 A 841.527 841.527 0 0 1 1158.81 1861.12 C 1125.39 1866.57 1092 1868.94 1058.24 1870.85 C 1002.75 1871.97 947.485 1869.96 892.544 1861.62 A 851.415 851.415 0 0 1 446.683 1644.55 A 845.484 845.484 0 0 1 177.084 1056.25 A 846.89 846.89 0 0 1 406.152 443.169 A 827.756 827.756 0 0 1 989.552 176.561 z"/>
<path transform="translate(0,0)" fill="rgb(243,245,239)" d="M 998.658 193.438 C 1201.35 186.335 1419.32 263.418 1570.38 399.158 C 1594.82 421.119 1619.64 444.133 1641.55 468.606 A 838.489 838.489 0 0 1 1852.92 977.502 A 831.287 831.287 0 0 1 1642.76 1575.37 C 1486.84 1748.16 1284.64 1842.75 1052.39 1854.76 A 833.958 833.958 0 0 1 466.761 1639.25 A 827.264 827.264 0 0 1 194.973 1064.8 A 832.943 832.943 0 0 1 413.033 460.721 A 821.176 821.176 0 0 1 871.288 205.959 C 913.315 198.419 956.07 195.556 998.658 193.438 z"/>
<path transform="translate(0,0)" fill="rgb(74,103,69)" d="M 716.479 326.106 C 719.902 325.733 723.654 325.353 727.072 325.809 C 736.011 327.002 740.728 333.017 745.737 339.77 C 751.554 338.804 756.871 338.634 762.49 340.748 C 763.981 341.309 765.222 342.076 766.376 343.179 C 773.154 349.658 778.277 357.291 785.407 363.705 C 786.547 364.731 787.744 365.754 788.618 367.03 C 790.708 370.083 792.215 373.887 793.778 377.239 C 807.432 385.88 807.267 392.189 814.969 404.604 C 817.046 407.951 819.996 410.719 822.092 414.061 C 825.268 419.126 822.942 429.903 821.623 435.561 C 836.544 450.486 855.117 462.633 872.267 474.884 A 1576.46 1576.46 0 0 0 961.382 534.504 C 993.878 554.302 1027.77 572.588 1058.7 594.774 C 1101.8 625.698 1133.72 670.583 1166.14 711.882 L 1236.23 801.93 C 1266.23 841.263 1297.61 879.716 1326.37 919.973 L 1441.03 920.511 L 1441.26 1029.04 L 1415.33 1029.03 C 1412.84 1077.47 1407.24 1126.01 1403.29 1174.36 L 1379.55 1463.27 L 1367.28 1613.98 C 1365.38 1638.01 1365.26 1664.36 1361.08 1687.92 C 1359.08 1699.21 1354.34 1710.01 1346.18 1718.21 A 61.6279 61.6279 0 0 1 1315.41 1735.1 C 1294.65 1739.43 1263.76 1736.39 1242.03 1736.41 A 16825.5 16825.5 0 0 1 1068.5 1735.99 L 868.516 1736.94 L 808.38 1737.54 C 795.701 1737.63 781.574 1738.54 769.061 1736.41 C 760.456 1734.94 751.175 1730.24 744.479 1724.71 C 736.727 1718.31 730.584 1710.33 728.363 1700.38 C 724.903 1684.89 724.78 1667.79 722.727 1651.95 L 705.229 1509.54 L 673.73 1243.51 A 10363.8 10363.8 0 0 1 648.37 1029.01 C 638.433 1028.7 623.729 1031.17 614.664 1027.26 C 609.596 1017.65 611.919 935.497 613.348 920.354 C 641.872 918.141 671.67 919.918 700.343 919.893 A 17184.8 17184.8 0 0 0 893.153 919.577 C 887.748 907.367 880.062 895.85 872.983 884.545 C 853.625 853.633 831.51 823.914 815.434 791.11 C 784.536 728.055 764.17 660.195 740.599 594.209 C 731.558 568.898 719.983 544.31 710.26 519.21 C 702.454 519.228 690.222 520.725 683.102 517.305 C 674.124 512.992 662.437 491.47 657.258 482.726 C 655.231 479.304 651.793 476.741 649.74 473.303 C 648.012 470.409 646.969 466.802 645.846 463.629 A 51.9326 51.9326 0 0 1 642.908 461.598 C 636.203 456.555 629.865 449.042 628.915 440.418 C 628.231 434.215 629.893 429.642 633.672 424.834 C 630.503 421.388 627.22 417.657 626.17 412.961 C 624.037 403.415 628.637 393.675 633.634 385.798 C 651.308 357.933 684.181 333.362 716.479 326.106 z"/>
<path transform="translate(0,0)" fill="rgb(243,245,239)" d="M 789.771 388.613 C 792.955 390.872 794.961 394.941 797.035 398.197 C 792.793 405.819 788.038 412.902 783.059 420.047 C 780.477 418.534 778.107 415.396 776.025 413.184 C 781.91 405.712 785.887 397.235 789.771 388.613 z"/>
<path transform="translate(0,0)" fill="rgb(243,245,239)" d="M 804.212 411.497 C 804.693 411.819 805.216 412.086 805.656 412.463 C 808.115 414.575 809.535 418.102 809.773 421.274 C 810.322 428.569 807.172 435.362 802.295 440.584 L 800.258 440.569 L 791.898 431.309 C 796.466 425.134 800.254 418.092 804.212 411.497 z"/>
<path transform="translate(0,0)" fill="rgb(243,245,239)" d="M 771.788 369.429 C 774.824 370.888 776.989 375.323 778.828 378.084 C 775.975 386.483 772.996 393.27 767.293 400.253 L 758.563 393.306 C 762.506 385.144 767.269 377.281 771.788 369.429 z"/>
<path transform="translate(0,0)" fill="rgb(243,245,239)" d="M 748.132 352.626 C 750.188 352.516 752.926 352.516 754.888 353.24 C 757.496 354.202 758.244 355.668 759.399 358.024 C 759.636 365.783 753.965 372.755 750.027 379.049 L 748.429 379.722 C 745.184 378.816 742.344 375.26 739.955 372.955 C 743.346 366.428 745.675 359.543 748.132 352.626 z"/>
<path transform="translate(0,0)" fill="rgb(243,245,239)" d="M 735.864 482.851 C 739.174 485.541 741.88 490.058 744.498 493.471 C 727.909 500.331 712.422 503.646 694.721 505.935 C 691.553 505.946 689.585 505.636 686.597 504.587 L 685.838 502.953 C 688.496 499.501 707.393 496.144 712.578 494.215 C 720.82 491.147 728.293 487.307 735.864 482.851 z"/>
<path transform="translate(0,0)" fill="rgb(243,245,239)" d="M 765.504 423.184 C 768.709 425.907 771.368 429.944 774.032 433.227 A 2108.1 2108.1 0 0 1 741.191 464.303 C 737.65 463.085 734.6 457.714 732.391 454.772 C 744.247 444.896 755.123 434.589 765.504 423.184 z"/>
<path transform="translate(0,0)" fill="rgb(243,245,239)" d="M 717.511 462.86 C 721.06 463.456 725.241 470.785 727.319 473.64 C 713.948 481.571 696.627 487.178 681.115 488.418 C 675.901 488.102 673.654 485.704 669.905 482.341 C 687.948 478.955 701.68 471.779 717.511 462.86 z"/>
<path transform="translate(0,0)" fill="rgb(243,245,239)" d="M 731.759 382.826 C 734.622 385.749 737.153 389.342 739.765 392.515 C 729.291 403.676 718.582 414.75 705.615 423.008 C 702.603 420.146 700.186 416.772 697.652 413.493 C 710.057 404.289 720.854 393.705 731.759 382.826 z"/>
<path transform="translate(0,0)" fill="rgb(243,245,239)" d="M 747.888 402.709 C 751.357 405.118 754.479 410.057 757.218 413.364 C 747.149 424.32 736.222 433.489 724.512 442.581 L 723.226 442.945 C 719.984 441.17 717.379 436.031 715.282 432.974 C 726.941 423.697 737.484 413.342 747.888 402.709 z"/>
<path transform="translate(0,0)" fill="rgb(243,245,239)" d="M 701.2 441.898 C 704.633 443.07 708.452 449.691 710.59 452.587 C 696.443 461.672 683.461 466.394 667.283 470.592 C 664.91 470.894 664.408 470.944 662.21 470.057 C 660.422 467.799 659.197 466.382 658.886 463.392 C 659.229 462.872 659.454 462.25 659.916 461.832 C 662.77 459.249 671.842 456.936 675.579 455.45 C 684.767 451.796 692.894 447.238 701.2 441.898 z"/>
<path transform="translate(0,0)" fill="rgb(243,245,239)" d="M 781.86 442.66 C 786.034 445.515 789.418 449.172 792.961 452.752 C 782.566 463.816 771.289 474.402 758.903 483.194 L 757.02 483.649 C 753.6 481.797 751.734 478.421 749.564 475.301 C 759.642 463.938 771.618 454.088 781.86 442.66 z"/>
<path transform="translate(0,0)" fill="rgb(243,245,239)" d="M 684.017 421.87 C 687.326 422.802 690.958 429.153 693.176 432.005 C 680.606 441.376 666.776 446.413 651.563 449.581 C 649.55 448.842 647.65 448.271 646.117 446.678 C 643.629 444.093 642.661 440.868 642.949 437.371 C 644.283 435.337 644.762 434.151 647.3 433.479 C 651.352 432.406 656.239 432.917 660.433 432.16 C 668.325 430.737 676.806 425.48 684.017 421.87 z"/>
<path transform="translate(0,0)" fill="rgb(243,245,239)" d="M 720.958 340.346 C 724.216 340.19 725.606 340.406 728.539 341.83 C 729.955 343.367 730.982 344.542 731.506 346.611 C 733.099 352.896 729.936 359.265 726.68 364.449 C 712.791 386.564 677.387 414.022 651.707 419.544 C 648.589 419.39 646.157 418.443 643.6 416.67 C 640.931 414.819 639.595 413.194 639.228 409.853 C 638.449 402.753 646.401 392.242 650.676 386.87 C 666.664 366.777 694.666 343.507 720.958 340.346 z"/>
<path transform="translate(0,0)" fill="rgb(243,245,239)" d="M 1122.98 851.294 C 1125.53 851.06 1128.1 850.859 1130.67 850.902 C 1145.25 851.147 1159.81 857.855 1169.69 868.526 C 1183.32 883.256 1186.58 899.931 1185.93 919.454 C 1170.19 919.691 1154.43 919.57 1138.68 919.617 L 1073.17 919.307 C 1072.8 903.426 1074.27 887.762 1083.64 874.358 C 1093.08 860.854 1107.21 854.028 1122.98 851.294 z"/>
<path transform="translate(0,0)" fill="rgb(243,245,239)" d="M 1064.99 629.833 C 1084.76 644.125 1100.74 666.857 1116.36 685.472 C 1162.56 740.514 1206.1 798.246 1250.16 855.037 C 1266.65 876.29 1281.42 900.232 1299.82 919.795 L 1275.49 919.41 C 1260.54 901.953 1247.39 882.746 1233.24 864.624 C 1193.57 813.787 1154.75 762.207 1114.71 711.671 A 1638.64 1638.64 0 0 1 1090.43 680.708 C 1084.55 672.964 1078.78 663.599 1071.62 657.113 C 1063.49 659.938 1044.65 681.783 1037.11 688.792 C 1002.18 721.077 965.221 752.419 924.67 777.473 C 917.425 781.95 874.696 805.377 871.905 810.156 C 870.213 813.054 870.989 816.295 871.906 819.282 C 875.118 822.711 878.155 822.638 882.651 823.196 C 888.074 827.09 941.683 907.531 949.992 919.344 C 940.777 919.143 931.544 919.189 922.326 919.122 C 906.601 896.502 892.644 872.317 877.876 849.044 C 867.557 832.78 855.651 816.888 846.573 799.948 C 864.501 787.408 885.258 777.742 903.829 765.918 C 952.282 735.069 1030.72 674.626 1064.99 629.833 z"/>
<path transform="translate(0,0)" fill="rgb(243,245,239)" d="M 1069.02 681.884 C 1080.93 691.38 1102.36 721.82 1112.73 735.196 L 1216.56 868.604 C 1229.96 885.631 1240.95 903.76 1256.12 919.464 A 3665.39 3665.39 0 0 1 1202.4 919.895 C 1201.31 905.571 1199.17 891.591 1193.08 878.439 A 74.1717 74.1717 0 0 0 1150.37 839.202 C 1131.07 832.413 1112.89 835.357 1094.8 843.983 C 1088.93 847.484 1083.56 851.53 1078.83 856.468 C 1061.69 874.326 1057.58 895.069 1058.19 919.016 L 969.3 918.767 C 964.362 910.256 958.101 902.27 952.592 894.102 C 934.698 867.574 915.472 841.588 898.597 814.435 C 945.006 785.674 988.092 754.515 1029.52 718.896 C 1042.78 707.493 1054.3 694.176 1067.71 682.968 L 1069.02 681.884 z"/>
<path transform="translate(0,0)" fill="rgb(243,245,239)" d="M 635.023 943.029 L 1418.89 942.946 L 1418.16 1008.77 C 1377.29 1010.11 1336.23 1008.98 1295.34 1008.82 L 1116.1 1008.8 L 634.764 1009.12 A 3426.97 3426.97 0 0 1 635.023 943.029 z"/>
<path transform="translate(0,0)" fill="rgb(243,245,239)" d="M 808.641 456.618 C 815.078 458.785 859.767 494.351 870.167 501.255 C 894.565 517.451 918.186 534.968 943.045 550.442 C 967.127 565.433 992.313 578.601 1016.36 593.663 C 1028.6 601.334 1040.23 610.273 1051.89 618.802 C 1030.16 639.247 1009.74 661.101 987.479 680.997 C 967.807 698.578 946.611 714.165 925.44 729.86 C 897.278 749.465 867.982 768.39 836.983 783.229 C 802.995 715.099 781.885 642.121 755.582 570.916 C 748.846 552.683 740.564 534.984 733.052 517.054 C 750.907 506.679 768.275 496.714 783.268 482.248 C 791.939 473.881 799.178 464.146 808.641 456.618 z"/>
<path transform="translate(0,0)" fill="rgb(243,245,239)" d="M 724.235 1028.51 C 831.921 1027.29 939.748 1028.12 1047.45 1028.4 L 1383.53 1028.72 C 1381.61 1067.43 1376.31 1106.28 1372.85 1144.9 L 1353.05 1375.93 L 1336.94 1575.78 C 1335.21 1598.11 1332.58 1671.39 1326.16 1688.4 C 1325.34 1689.8 1324.48 1691.21 1323.49 1692.5 C 1319.01 1698.37 1313.29 1701.42 1306.05 1702.38 C 1287.62 1704.82 1260.05 1702.95 1240.78 1703.04 L 1087.42 1703.21 L 866.817 1704.14 C 839.45 1704.1 811.553 1705.86 784.26 1704.34 C 777.493 1703.96 770.208 1702.6 765.102 1697.63 C 760.662 1693.3 758.933 1683.71 757.893 1677.7 C 750.211 1633.32 746.552 1587.52 741.495 1542.76 L 718.752 1348.46 L 695.865 1145.15 C 691.384 1106.58 685.136 1067.68 682.56 1028.96 L 724.235 1028.51 z"/>
<path transform="translate(0,0)" fill="rgb(74,103,69)" d="M 817.384 1252.16 C 833.069 1251.19 849.724 1253.53 865.51 1253.87 C 884.72 1254.28 903.865 1252.96 923.069 1253.1 C 929.396 1263.05 935.743 1273.06 942.862 1282.47 C 954.426 1297.76 989.652 1333.38 990.412 1350.32 L 989.622 1351.17 C 980.039 1346.31 967.132 1334.37 957.921 1327.73 A 1874.6 1874.6 0 0 0 933.37 1371.58 C 966.956 1371.84 1000.48 1370.89 1034.05 1371.03 A 3904.1 3904.1 0 0 1 1035.33 1433.28 C 1035.4 1448.92 1035.62 1464.57 1035.04 1480.2 C 1007.8 1479.38 942.099 1483.08 919.924 1475.59 C 910.104 1472.28 900.689 1466.32 894.01 1458.35 C 884.27 1446.72 878.36 1430.86 871.009 1417.55 C 856.281 1390.86 840.511 1364.71 826.809 1337.47 C 830.702 1328.94 836.642 1320.82 841.338 1312.67 C 848.381 1300.44 854.913 1287.95 862.201 1275.86 C 846.745 1269.11 832.142 1260.3 817.384 1252.16 z"/>
<path transform="translate(0,0)" fill="rgb(195,210,179)" d="M 881.558 1274.19 L 910.818 1274.01 C 921.688 1287.99 932.668 1301.5 944.73 1314.48 C 929.829 1343.83 912.769 1371.98 898 1401.41 L 890.82 1416.5 C 876.869 1390.2 859.011 1364.8 847.459 1337.39 C 856.762 1315.71 870.119 1294.87 881.558 1274.19 z"/>
<path transform="translate(0,0)" fill="rgb(195,210,179)" d="M 922.377 1387.96 A 6292.59 6292.59 0 0 0 1018.75 1387.78 L 1019.18 1462.11 C 1012.06 1462.85 1004.84 1462.82 997.687 1462.97 C 978.646 1462.87 942.402 1466.62 925.766 1460.18 C 913.11 1455.28 904.535 1444.65 899.086 1432.63 C 907.326 1418.07 914.657 1402.82 922.377 1387.96 z"/>
<path transform="translate(0,0)" fill="rgb(74,103,69)" d="M 1191.17 1219.03 C 1199.01 1228.89 1205.3 1241.73 1211.81 1252.59 C 1221.78 1269.24 1233.39 1286.17 1241.52 1303.77 C 1244.51 1310.23 1247.95 1318.92 1248.18 1326.08 C 1248.38 1332.13 1245.12 1339.72 1242.5 1345.2 C 1235.08 1360.65 1224.44 1375.06 1215.79 1389.89 C 1205.84 1406.98 1185.54 1448.84 1173.86 1461.64 C 1158.94 1477.99 1142.29 1477.18 1122.09 1477.34 A 1084.74 1084.74 0 0 0 1094.86 1478.08 C 1093.7 1497.56 1093.57 1517.15 1092.63 1536.66 C 1083.4 1514.71 1073.72 1492.9 1065.12 1470.7 C 1059.33 1455.64 1053.54 1440.72 1046.55 1426.17 C 1051.14 1412.41 1058.04 1399.25 1063.94 1385.98 C 1073.2 1365.13 1082.16 1344.17 1091.62 1323.4 C 1092.8 1339.26 1092.95 1355.12 1093.08 1371.01 L 1159.86 1371.08 C 1137.99 1341.7 1117.27 1310.51 1098.14 1279.31 C 1109.55 1270.77 1122.18 1263.5 1133.99 1255.48 C 1152.65 1242.81 1170.69 1228.69 1191.17 1219.03 z"/>
<path transform="translate(0,0)" fill="rgb(195,210,179)" d="M 1148.31 1387.49 C 1167.39 1386.9 1174.41 1389.19 1191.09 1398.29 C 1184.31 1411.39 1171.56 1439.74 1162.6 1449.82 C 1149.41 1464.65 1125.04 1460.98 1107.18 1461.85 A 845.938 845.938 0 0 0 1079.12 1463.33 L 1063.7 1425.58 C 1068 1412.81 1073.69 1400.34 1078.88 1387.9 L 1148.31 1387.49 z"/>
<path transform="translate(0,0)" fill="rgb(195,210,179)" d="M 1185.83 1239.81 C 1190.6 1244.19 1219.9 1295.46 1223.59 1303.65 C 1225.77 1308.48 1227.44 1313.58 1228.03 1318.86 C 1230.31 1339.11 1214.9 1356.28 1203.48 1371.23 C 1197.03 1372.86 1190.96 1373.93 1184.32 1374.42 C 1180.99 1371.86 1178.57 1368.66 1175.94 1365.42 C 1156.86 1338.9 1139.66 1310.92 1120.04 1284.84 A 4995.62 4995.62 0 0 1 1185.83 1239.81 z"/>
<path transform="translate(0,0)" fill="rgb(74,103,69)" d="M 1074.67 1115.44 C 1090.63 1114.54 1107.06 1114.62 1123.05 1114.81 C 1129.95 1124.81 1135.97 1135.61 1142.56 1145.85 C 1150.15 1157.67 1158.27 1169.12 1165.73 1181.03 C 1178.74 1168.67 1189.78 1160.94 1205.98 1153.21 C 1185.82 1183.87 1162.97 1212.23 1139.4 1240.27 C 1101.53 1253.76 1059.63 1253.3 1020.03 1251.75 C 1035.22 1238.68 1048.22 1235.03 1067.93 1233.78 C 1061.52 1223.35 1054.51 1213.2 1047.8 1202.95 C 1043.04 1196.34 1038.75 1189.29 1034.27 1182.48 C 1019.6 1205.1 1006.51 1229.43 992.857 1252.73 C 988.026 1260.98 983.83 1269.79 978.344 1277.62 C 961.332 1269.93 902.118 1232.41 888.683 1219.88 C 898.616 1198.58 912.74 1177.89 925.027 1157.85 C 932.816 1145.15 940.26 1130.52 949.825 1119.13 C 991.39 1116.46 1033.07 1117.68 1074.67 1115.44 z"/>
<path transform="translate(0,0)" fill="rgb(195,210,179)" d="M 1014.69 1131.5 A 426.452 426.452 0 0 1 1046.42 1131.9 C 1042.06 1138.19 1038.02 1144.73 1033.89 1151.18 C 1032.85 1152.82 1031.7 1154.26 1030.5 1155.8 C 1025.8 1150.3 1012.95 1138.16 1010.62 1132.15 L 1014.69 1131.5 z"/>
<path transform="translate(0,0)" fill="rgb(195,210,179)" d="M 1093.1 1131.48 L 1113.28 1131.2 C 1128.64 1149.39 1142.04 1171.79 1154.56 1192.07 C 1145.41 1203.54 1133.72 1222.19 1119.56 1227.36 C 1115.23 1228.95 1109.82 1229.17 1105.24 1229.72 C 1098.83 1230.56 1092.36 1231.11 1085.93 1231.76 L 1043.52 1165.48 C 1050.68 1155.04 1056.19 1143.22 1062.09 1132.02 A 1025.35 1025.35 0 0 0 1093.1 1131.48 z"/>
<path transform="translate(0,0)" fill="rgb(195,210,179)" d="M 959.343 1132.99 C 970.19 1132.57 981.056 1133.07 991.889 1133.6 C 1002.75 1145.27 1012.82 1157.63 1023.78 1169.22 C 1008.56 1198.68 990.447 1227.68 972.842 1255.8 L 971.068 1257.4 C 960.104 1253.83 920.833 1223.3 911.692 1214.21 C 917.904 1200.97 926.468 1188.36 933.773 1175.67 C 941.081 1162.97 949.509 1143.51 959.343 1132.99 z"/>
</svg>